<?xml version="1.0"?>
<svg xmlns:rdf="http://www.w3.org/1999/02/22-rdf-syntax-ns#" xmlns="http://www.w3.org/2000/svg" xmlns:cc="http://creativecommons.org/ns#" xmlns:xlink="http://www.w3.org/1999/xlink" xmlns:dc="http://purl.org/dc/elements/1.1/" id="svg23309" viewBox="0 0 244.38 309.49" version="1.0">
  <defs id="defs3">
    <filter id="filter21116">
      <feGaussianBlur id="feGaussianBlur21118" stdDeviation="0.72919389"/>
    </filter>
    <linearGradient id="linearGradient10002">
      <stop id="stop10004" stop-color="#d9bc78" offset="0"/>
      <stop id="stop10006" stop-color="#8b7442" offset="1"/>
    </linearGradient>
    <radialGradient id="radialGradient23425" gradientUnits="userSpaceOnUse" cy="69.085" cx="260.03" gradientTransform="matrix(1.5854 -5.2546e-7 4.99e-7 1.5056 -152.22 -34.927)" r="25.886">
      <stop id="stop21096" stop-color="#060000" offset="0"/>
      <stop id="stop21098" offset="1"/>
    </radialGradient>
    <linearGradient id="linearGradient23427" y2="69.085" gradientUnits="userSpaceOnUse" y1="44.198" x2="284.91" x1="225.96">
      <stop id="stop17208" stop-color="#ceb270" offset="0"/>
      <stop id="stop17210" stop-color="#99814b" offset="1"/>
    </linearGradient>
    <linearGradient id="linearGradient23429" x1="192.22" xlink:href="#linearGradient10002" gradientUnits="userSpaceOnUse" y1="-5.9312" gradientTransform="matrix(1.1549 0 0 1.5342 -3.0349 115.04)" x2="195.1" y2="-5.9312"/>
    <linearGradient id="linearGradient23431" x1="192.22" xlink:href="#linearGradient10002" gradientUnits="userSpaceOnUse" y1="-5.9312" gradientTransform="matrix(1.0066 0 0 1.5342 28.468 112.07)" x2="195.1" y2="-5.9312"/>
    <linearGradient id="linearGradient23433" x1="192.22" xlink:href="#linearGradient10002" gradientUnits="userSpaceOnUse" y1="-5.9312" gradientTransform="matrix(1.3626 0 0 1.5342 -37.225 110.24)" x2="195.1" y2="-5.9312"/>
    <linearGradient id="linearGradient23435" x1="192.22" xlink:href="#linearGradient10002" gradientUnits="userSpaceOnUse" y1="-5.9312" gradientTransform="matrix(1.0066 0 0 1.5342 34.626 109.07)" x2="195.1" y2="-5.9312"/>
    <linearGradient id="linearGradient23437" x1="192.22" xlink:href="#linearGradient10002" gradientUnits="userSpaceOnUse" y1="-5.9312" gradientTransform="matrix(1.0909 0 0 1.5342 21.153 108.03)" x2="195.1" y2="-5.9312"/>
    <linearGradient id="linearGradient23439" x1="192.22" xlink:href="#linearGradient10002" gradientUnits="userSpaceOnUse" y1="-5.9312" gradientTransform="matrix(1.0066 0 0 1.5342 40.271 107.77)" x2="195.1" y2="-5.9312"/>
    <linearGradient id="linearGradient23441" x1="192.22" xlink:href="#linearGradient10002" gradientUnits="userSpaceOnUse" y1="-5.9312" gradientTransform="matrix(1.0807 0 0 1.5342 28.837 107.11)" x2="195.1" y2="-5.9312"/>
    <linearGradient id="linearGradient23443" x1="192.22" xlink:href="#linearGradient10002" gradientUnits="userSpaceOnUse" y1="-5.9312" gradientTransform="matrix(1.0066 0 0 1.5342 46.087 106.59)" x2="195.1" y2="-5.9312"/>
    <linearGradient id="linearGradient23445" x1="192.22" xlink:href="#linearGradient10002" gradientUnits="userSpaceOnUse" y1="-5.9312" gradientTransform="matrix(1.0768 0 0 1.5342 35.4 106.2)" x2="195.1" y2="-5.9312"/>
    <linearGradient id="linearGradient23447" x1="192.22" xlink:href="#linearGradient10002" gradientUnits="userSpaceOnUse" y1="-5.9312" gradientTransform="matrix(1.105 0 0 1.5342 32.904 105.81)" x2="195.1" y2="-5.9312"/>
    <linearGradient id="linearGradient23449" x1="192.22" xlink:href="#linearGradient10002" gradientUnits="userSpaceOnUse" y1="-5.9312" gradientTransform="matrix(1.0066 0 0 1.5342 54.726 105.68)" x2="195.1" y2="-5.9312"/>
    <linearGradient id="linearGradient23451" x1="192.22" xlink:href="#linearGradient10002" gradientUnits="userSpaceOnUse" y1="-5.9312" gradientTransform="matrix(1.0628 0 0 1.5342 46.741 105.42)" x2="195.1" y2="-5.9312"/>
    <linearGradient id="linearGradient23453" x1="192.22" xlink:href="#linearGradient10002" gradientUnits="userSpaceOnUse" y1="-5.9312" gradientTransform="matrix(1.0909 0 0 1.5342 44.158 105.29)" x2="195.1" y2="-5.9312"/>
    <linearGradient id="linearGradient23455" x1="192.22" xlink:href="#linearGradient10002" gradientUnits="userSpaceOnUse" y1="-5.9312" gradientTransform="matrix(1.0909 0 0 1.5342 47.067 105.29)" x2="195.1" y2="-5.9312"/>
    <linearGradient id="linearGradient23457" x1="192.22" xlink:href="#linearGradient10002" gradientUnits="userSpaceOnUse" y1="-5.9312" gradientTransform="matrix(1.0628 0 0 1.5342 55.379 105.03)" x2="195.1" y2="-5.9312"/>
    <linearGradient id="linearGradient23459" x1="192.22" xlink:href="#linearGradient10002" gradientUnits="userSpaceOnUse" y1="-5.9312" gradientTransform="matrix(1.0066 0 0 1.5342 69.009 105.29)" x2="195.1" y2="-5.9312"/>
    <linearGradient id="linearGradient23461" x1="192.22" xlink:href="#linearGradient10002" gradientUnits="userSpaceOnUse" y1="-5.9312" gradientTransform="matrix(1.0066 0 0 1.5342 71.917 105.42)" x2="195.1" y2="-5.9312"/>
    <linearGradient id="linearGradient23463" x1="192.22" xlink:href="#linearGradient10002" gradientUnits="userSpaceOnUse" y1="-5.9312" gradientTransform="matrix(1.1549 0 0 1.5342 46.227 105.81)" x2="195.1" y2="-5.9312"/>
    <linearGradient id="linearGradient23465" x1="192.22" xlink:href="#linearGradient10002" gradientUnits="userSpaceOnUse" y1="-5.9312" gradientTransform="matrix(1.0066 0 0 1.5342 77.733 106.07)" x2="195.1" y2="-5.9312"/>
    <linearGradient id="linearGradient23467" x1="192.22" xlink:href="#linearGradient10002" gradientUnits="userSpaceOnUse" y1="-5.9312" gradientTransform="matrix(1.0768 0 0 1.5342 67.045 106.07)" x2="195.1" y2="-5.9312"/>
    <linearGradient id="linearGradient23469" x1="192.22" xlink:href="#linearGradient10002" gradientUnits="userSpaceOnUse" y1="-5.9312" gradientTransform="matrix(1.105 0 0 1.5342 64.549 106.98)" x2="195.1" y2="-5.9312"/>
    <linearGradient id="linearGradient23471" x1="192.22" xlink:href="#linearGradient10002" gradientUnits="userSpaceOnUse" y1="-5.9312" gradientTransform="matrix(1.0066 0 0 1.5342 86.372 107.38)" x2="195.1" y2="-5.9312"/>
    <linearGradient id="linearGradient23473" x1="192.22" xlink:href="#linearGradient10002" gradientUnits="userSpaceOnUse" y1="-5.9312" gradientTransform="matrix(1.1539 0 0 1.5342 60.867 108.29)" x2="195.1" y2="-5.9312"/>
    <linearGradient id="linearGradient23475" x1="192.22" xlink:href="#linearGradient10002" gradientUnits="userSpaceOnUse" y1="-5.9312" gradientTransform="matrix(1.1539 0 0 1.5342 63.69 109.46)" x2="195.1" y2="-5.9312"/>
    <linearGradient id="linearGradient23477" x1="192.22" xlink:href="#linearGradient10002" gradientUnits="userSpaceOnUse" y1="-5.9312" gradientTransform="matrix(1.1244 0 0 1.5342 72.349 111.03)" x2="195.1" y2="-5.9312"/>
    <linearGradient id="linearGradient23479" x1="192.22" xlink:href="#linearGradient10002" gradientUnits="userSpaceOnUse" y1="-5.9312" gradientTransform="matrix(1.0768 0 0 1.5342 84.494 113.24)" x2="195.1" y2="-5.9312"/>
    <linearGradient id="linearGradient23481" x1="192.22" xlink:href="#linearGradient10002" gradientUnits="userSpaceOnUse" y1="-5.9312" gradientTransform="matrix(1.0066 0 0 1.5342 100.91 115.46)" x2="195.1" y2="-5.9312"/>
    <radialGradient id="radialGradient23483" gradientUnits="userSpaceOnUse" cy="271.48" cx="280.58" r="129.54">
      <stop id="stop22099" stop-color="#fff" offset="0"/>
      <stop id="stop22101" stop-color="#f00" offset="1"/>
    </radialGradient>
  </defs>
  <g id="layer1" transform="translate(-52.096 -106.19)">
    <g id="g23391" transform="translate(-182.86 77.143)">
      <path id="path18183" d="m282.41 69.085a22.386 22.386 0 1 1 -44.77 0 22.386 22.386 0 1 1 44.77 0z" transform="translate(100.1 -14.152)" filter="url(#filter21116)" stroke="url(#radialGradient23425)" stroke-width="7" fill="none"/>
      <path id="path16235" d="m282.41 69.085a22.386 22.386 0 1 1 -44.77 0 22.386 22.386 0 1 1 44.77 0z" transform="translate(100.22 -14.267)" stroke="url(#linearGradient23427)" stroke-width="5" fill="none"/>
      <g id="g23155" transform="translate(100.45 -14.726)" fill-rule="evenodd">
        <path id="path9023" fill="url(#linearGradient23429)" d="m222.28 87.5c-1.86 0.931-2.85 1.81-3.34 2.531v25.249c0.21-0.06 0.44-0.1 0.65-0.16 0.9-0.28 1.79-0.57 2.69-0.84v-26.78z"/>
        <path id="path10010" fill="url(#linearGradient23431)" d="m224.84 86.375c-1.19 0.417-2.11 0.861-2.9 1.281v26.724c0.96-0.29 1.93-0.55 2.9-0.82v-27.185z"/>
        <path id="path10014" fill="url(#linearGradient23433)" d="m228.59 85.344c-1.52 0.363-2.83 0.733-3.93 1.125v27.151c1.3-0.35 2.62-0.68 3.93-1v-27.276z"/>
        <path id="path10018" fill="url(#linearGradient23435)" d="m231 84.844c-1.06 0.205-2.02 0.402-2.91 0.625v27.281c0.97-0.23 1.94-0.48 2.91-0.69v-27.216z"/>
        <path id="path10022" fill="url(#linearGradient23437)" d="m233.96 84.344c-1.13 0.162-2.17 0.321-3.15 0.5v27.276c1.05-0.2 2.1-0.4 3.15-0.59v-27.186z"/>
        <path id="path10026" fill="url(#linearGradient23439)" d="m236.62 83.906c-1 0.125-1.97 0.267-2.87 0.406v27.218c0.96-0.18 1.91-0.37 2.87-0.53v-27.094z"/>
        <path id="path10030" fill="url(#linearGradient23441)" d="m239.69 83.594c-1.08 0.105-2.15 0.254-3.13 0.375v27.031c1.04-0.17 2.08-0.32 3.13-0.47v-26.936z"/>
        <path id="path10034" fill="url(#linearGradient23443)" d="m242.47 83.344c-1 0.077-1.99 0.16-2.91 0.25v26.966c0.97-0.13 1.94-0.26 2.91-0.37v-26.846z"/>
        <path id="path10038" fill="url(#linearGradient23445)" d="m245.48 83.188c-1.07 0.059-2.11 0.115-3.1 0.187v26.815c1.02-0.12 2.07-0.22 3.1-0.31v-26.692z"/>
        <path id="path10042" fill="url(#linearGradient23447)" d="m248.47 83.031c-1.1 0.044-2.16 0.101-3.19 0.157v26.692c1.06-0.09 2.13-0.16 3.19-0.22v-26.629z"/>
        <path id="path10046" fill="url(#linearGradient23449)" d="m251.09 82.875c-1 0.03-1.96 0.115-2.9 0.156v26.629c0.96-0.07 1.93-0.15 2.9-0.19v-26.595z"/>
        <path id="path10050" fill="url(#linearGradient23451)" d="m254.07 82.844c-1.04 0.017-2.09 0.003-3.07 0.031v26.595c1.02-0.05 2.04-0.04 3.07-0.06v-26.566z"/>
        <path id="path10054" fill="url(#linearGradient23453)" d="m256.99 82.812c-1.12 0.008-2.09 0.014-3.15 0.032v26.566c1.03-0.03 2.05-0.07 3.09-0.07h0.06v-26.528z"/>
        <path id="path10058" fill="url(#linearGradient23455)" d="m256.75 82.812v26.528c1.05 0 2.11 0.04 3.15 0.07v-26.598c-0.99-0.004-1.98-0.006-3.01 0-0.05 0.001-0.09 0-0.14 0z"/>
        <path id="path10062" fill="url(#linearGradient23457)" d="m259.66 82.812v26.598c1.02 0.02 2.05 0.04 3.06 0.09v-26.656c-0.99-0.016-2.01-0.027-3.06-0.032z"/>
        <path id="path10066" fill="url(#linearGradient23459)" d="m262.47 82.844v26.656c0.97 0.05 1.94 0.09 2.91 0.16v-26.785c-0.95-0.029-1.92-0.015-2.91-0.031z"/>
        <path id="path10070" fill="url(#linearGradient23461)" d="m265.38 82.875v26.785c0.97 0.07 1.93 0.15 2.9 0.25v-26.879c-0.94-0.043-1.91-0.125-2.9-0.156z"/>
        <path id="path10074" fill="url(#linearGradient23463)" d="m268.22 83.031v26.879c1.11 0.1 2.21 0.21 3.31 0.34v-27.062c-1.06-0.071-2.17-0.104-3.31-0.157z"/>
        <path id="path10078" fill="url(#linearGradient23465)" d="m271.31 83.188c-0.01 8.963-0.06 21.062-0.09 27.032 0.96 0.11 1.92 0.24 2.87 0.37v-27.215c-0.89-0.076-1.82-0.125-2.78-0.187z"/>
        <path id="path10082" fill="url(#linearGradient23467)" d="m274.03 83.375v27.215c1.04 0.14 2.08 0.28 3.11 0.44v-27.374c-0.99-0.101-2.03-0.195-3.11-0.281z"/>
        <path id="path10086" fill="url(#linearGradient23469)" d="m276.94 83.656v27.374c1.06 0.16 2.13 0.35 3.19 0.53v-27.529c-1.01-0.127-2.08-0.264-3.19-0.375z"/>
        <path id="path10094" fill="url(#linearGradient23471)" d="m279.84 84.031v27.529c0.97 0.19 1.95 0.39 2.91 0.6v-27.691c-0.92-0.16-1.88-0.295-2.91-0.438z"/>
        <path id="path10098" fill="url(#linearGradient23473)" d="m282.66 84.469v27.651c1.12 0.25 2.23 0.51 3.34 0.79v-27.785c-1.02-0.232-2.14-0.448-3.34-0.656z"/>
        <path id="path10102" fill="url(#linearGradient23475)" d="m285.47 85.031v27.749c1.12 0.27 2.23 0.57 3.34 0.88v-27.816c-1.01-0.297-2.09-0.54-3.34-0.813z"/>
        <path id="path10106" fill="url(#linearGradient23477)" d="m288.47 85.75v27.81c1.09 0.3 2.17 0.59 3.25 0.91v-27.626c-0.93-0.367-2.01-0.744-3.25-1.094z"/>
        <path id="path10110" fill="url(#linearGradient23479)" d="m291.47 86.75v27.66c1.04 0.29 2.08 0.59 3.11 0.9v-27.216c-0.83-0.438-1.87-0.899-3.11-1.344z"/>
        <path id="path10114" fill="url(#linearGradient23481)" d="m294.38 88.094v27.216c0.97 0.32 1.94 0.66 2.9 1v-25.904c-0.47-0.623-1.34-1.427-2.9-2.312z"/>
      </g>
      <path id="path16021" d="m409.61 271.48a129.04 129.04 0 1 1 -258.07 0 129.04 129.04 0 1 1 258.07 0z" fill-rule="evenodd" transform="matrix(.94328 0 0 .94328 92.481 -39.738)" stroke="#000" fill="url(#radialGradient23483)"/>
      <path id="path23294" stroke="#000" stroke-width="1px" fill="none" d="m319.14 99.99v-25.328s10.87-6.656 39.77-6.656c29.07 0 38.81 6.656 38.81 6.656v26.298s-22.16-5.958-41.81-6.201c-19.64-0.244-36.77 5.231-36.77 5.231z"/>
    </g>
  </g>
  <metadata>
    <rdf:RDF>
      <cc:Work>
        <dc:format>image/svg+xml</dc:format>
        <dc:type rdf:resource="http://purl.org/dc/dcmitype/StillImage"/>
        <cc:license rdf:resource="http://creativecommons.org/licenses/publicdomain/"/>
        <dc:publisher>
          <cc:Agent rdf:about="http://openclipart.org/">
            <dc:title>Openclipart</dc:title>
          </cc:Agent>
        </dc:publisher>
      </cc:Work>
      <cc:License rdf:about="http://creativecommons.org/licenses/publicdomain/">
        <cc:permits rdf:resource="http://creativecommons.org/ns#Reproduction"/>
        <cc:permits rdf:resource="http://creativecommons.org/ns#Distribution"/>
        <cc:permits rdf:resource="http://creativecommons.org/ns#DerivativeWorks"/>
      </cc:License>
    </rdf:RDF>
  </metadata>
</svg>
